<svg width="16" height="16" viewBox="0 0 16 16" fill="none" xmlns="http://www.w3.org/2000/svg">
    <path
        d="M15.68 8.18182C15.68 7.61455 15.6291 7.06909 15.5345 6.54545H8V9.64364H12.3055C12.1164 10.64 11.5491 11.4836 10.7091 12.0545V14.0618H13.2945C14.8073 12.6691 15.68 10.6182 15.68 8.18182Z"
        fill="#4285F4" />
    <path
        d="M8 16C10.16 16 11.9709 15.2836 13.2945 14.0618L10.7091 12.0545C9.99273 12.5345 9.07636 12.8182 8 12.8182C5.92727 12.8182 4.16364 11.4109 3.52727 9.52727H0.850909V11.5927C2.16727 14.2073 4.87273 16 8 16Z"
        fill="#34A853" />
    <path
        d="M3.52727 9.52727C3.37091 9.04727 3.28364 8.53091 3.28364 8C3.28364 7.46909 3.37091 6.95273 3.52727 6.47273V4.40727H0.850909C0.309091 5.48727 0 6.70909 0 8C0 9.29091 0.309091 10.5127 0.850909 11.5927L3.52727 9.52727Z"
        fill="#FBBC05" />
    <path
        d="M8 3.18182C9.17818 3.18182 10.2291 3.58545 11.0564 4.37818L13.3527 2.08182C11.9673 0.792727 10.1564 0 8 0C4.87273 0 2.16727 1.79273 0.850909 4.40727L3.52727 6.47273C4.16364 4.58909 5.92727 3.18182 8 3.18182Z"
        fill="#EA4335" />
</svg>